# Blender 3.4.1
# www.blender.org
mtllib StreetLamp.mtl
o StreetLamp
v 0.096960 -0.005675 0.000000
v 0.051313 2.828873 0.000000
v 0.095097 -0.005675 0.018916
v 0.050327 2.828873 0.010011
v 0.089579 -0.005675 0.037105
v 0.047407 2.828873 0.019637
v 0.080619 -0.005675 0.053868
v 0.042665 2.828873 0.028508
v 0.068561 -0.005675 0.068561
v 0.036284 2.828873 0.036284
v 0.053868 -0.005675 0.080619
v 0.028508 2.828873 0.042665
v 0.037105 -0.005675 0.089579
v 0.019637 2.828873 0.047407
v 0.018916 -0.005675 0.095097
v 0.010011 2.828873 0.050327
v -0.000000 -0.005675 0.096960
v -0.000000 2.828873 0.051313
v -0.018916 -0.005675 0.095097
v -0.010011 2.828873 0.050327
v -0.037105 -0.005675 0.089579
v -0.019637 2.828873 0.047407
v -0.053868 -0.005675 0.080619
v -0.028508 2.828873 0.042665
v -0.068561 -0.005675 0.068561
v -0.036284 2.828873 0.036284
v -0.080619 -0.005675 0.053868
v -0.042665 2.828873 0.028508
v -0.089579 -0.005675 0.037105
v -0.047407 2.828873 0.019637
v -0.095097 -0.005675 0.018916
v -0.050327 2.828873 0.010011
v -0.096960 -0.005675 -0.000000
v -0.051313 2.828873 -0.000000
v -0.095097 -0.005675 -0.018916
v -0.050327 2.828873 -0.010011
v -0.089579 -0.005675 -0.037105
v -0.047407 2.828873 -0.019637
v -0.080619 -0.005675 -0.053868
v -0.042665 2.828873 -0.028508
v -0.068561 -0.005675 -0.068561
v -0.036284 2.828873 -0.036284
v -0.053868 -0.005675 -0.080619
v -0.028508 2.828873 -0.042665
v -0.037105 -0.005675 -0.089579
v -0.019637 2.828873 -0.047407
v -0.018916 -0.005675 -0.095097
v -0.010011 2.828873 -0.050327
v 0.000000 -0.005675 -0.096960
v 0.000000 2.828873 -0.051313
v 0.018916 -0.005675 -0.095097
v 0.010011 2.828873 -0.050327
v 0.037105 -0.005675 -0.089579
v 0.019637 2.828873 -0.047407
v 0.053868 -0.005675 -0.080619
v 0.028508 2.828873 -0.042665
v 0.068561 -0.005675 -0.068561
v 0.036284 2.828873 -0.036284
v 0.080619 -0.005675 -0.053868
v 0.042665 2.828873 -0.028508
v 0.089579 -0.005675 -0.037105
v 0.047407 2.828873 -0.019637
v 0.095097 -0.005675 -0.018916
v 0.050327 2.828873 -0.010011
v 0.096960 1.142335 0.000000
v 0.095097 1.142335 0.018916
v 0.089579 1.142335 0.037105
v 0.080619 1.142335 0.053868
v 0.068561 1.142335 0.068561
v 0.053868 1.142335 0.080619
v 0.037105 1.142335 0.089579
v 0.018916 1.142335 0.095097
v -0.000000 1.142335 0.096960
v -0.018916 1.142335 0.095097
v -0.037105 1.142335 0.089579
v -0.053868 1.142335 0.080619
v -0.068561 1.142335 0.068561
v -0.080619 1.142335 0.053868
v -0.089579 1.142335 0.037105
v -0.095097 1.142335 0.018916
v -0.096960 1.142335 -0.000000
v -0.095097 1.142335 -0.018916
v -0.089579 1.142335 -0.037105
v -0.080619 1.142335 -0.053868
v -0.068561 1.142335 -0.068561
v -0.053868 1.142335 -0.080619
v -0.037105 1.142335 -0.089579
v -0.018916 1.142335 -0.095097
v 0.000000 1.142335 -0.096960
v 0.018916 1.142335 -0.095097
v 0.037105 1.142335 -0.089579
v 0.053868 1.142335 -0.080619
v 0.068561 1.142335 -0.068561
v 0.080619 1.142335 -0.053868
v 0.089579 1.142335 -0.037105
v 0.095097 1.142335 -0.018916
v 0.064408 1.239862 0.000000
v 0.063171 1.239862 0.012565
v 0.059506 1.239862 0.024648
v 0.053554 1.239862 0.035783
v 0.045544 1.239862 0.045544
v 0.035783 1.239862 0.053554
v 0.024648 1.239862 0.059506
v 0.012565 1.239862 0.063171
v -0.000000 1.239862 0.064408
v -0.012565 1.239862 0.063171
v -0.024648 1.239862 0.059506
v -0.035783 1.239862 0.053554
v -0.045544 1.239862 0.045544
v -0.053554 1.239862 0.035783
v -0.059506 1.239862 0.024648
v -0.063171 1.239862 0.012565
v -0.064408 1.239862 -0.000000
v -0.063171 1.239862 -0.012565
v -0.059506 1.239862 -0.024648
v -0.053554 1.239862 -0.035783
v -0.045544 1.239862 -0.045544
v -0.035783 1.239862 -0.053554
v -0.024648 1.239862 -0.059506
v -0.012565 1.239862 -0.063171
v 0.000000 1.239862 -0.064408
v 0.012565 1.239862 -0.063171
v 0.024648 1.239862 -0.059506
v 0.035783 1.239862 -0.053554
v 0.045544 1.239862 -0.045544
v 0.053554 1.239862 -0.035783
v 0.059506 1.239862 -0.024648
v 0.063171 1.239862 -0.012565
v 0.063171 2.828873 0.012565
v 0.064408 2.828873 0.000000
v 0.059506 2.828873 0.024648
v 0.053554 2.828873 0.035783
v 0.045544 2.828873 0.045544
v 0.035783 2.828873 0.053554
v 0.024648 2.828873 0.059506
v 0.012565 2.828873 0.063171
v -0.000000 2.828873 0.064408
v -0.012565 2.828873 0.063171
v -0.024648 2.828873 0.059506
v -0.035783 2.828873 0.053554
v -0.045544 2.828873 0.045544
v -0.053554 2.828873 0.035783
v -0.059506 2.828873 0.024648
v -0.063171 2.828873 0.012565
v -0.064408 2.828873 -0.000000
v -0.063171 2.828873 -0.012565
v -0.059506 2.828873 -0.024648
v -0.053554 2.828873 -0.035783
v -0.045544 2.828873 -0.045544
v -0.035783 2.828873 -0.053554
v -0.024648 2.828873 -0.059506
v -0.012565 2.828873 -0.063171
v 0.000000 2.828873 -0.064408
v 0.012565 2.828873 -0.063171
v 0.024648 2.828873 -0.059506
v 0.035783 2.828873 -0.053554
v 0.045544 2.828873 -0.045544
v 0.053554 2.828873 -0.035783
v 0.059506 2.828873 -0.024648
v 0.063171 2.828873 -0.012565
v 0.050327 3.321892 0.010011
v 0.051313 3.321892 0.000000
v 0.047407 3.321892 0.019637
v 0.042665 3.321892 0.028508
v 0.036284 3.321892 0.036284
v 0.028508 3.321892 0.042665
v 0.019637 3.321892 0.047407
v 0.010011 3.321892 0.050327
v -0.000000 3.321892 0.051313
v -0.010011 3.321892 0.050327
v -0.019637 3.321892 0.047407
v -0.028508 3.321892 0.042665
v -0.036284 3.321892 0.036284
v -0.042665 3.321892 0.028508
v -0.047407 3.321892 0.019637
v -0.050327 3.321892 0.010011
v -0.051313 3.321892 0.000000
v -0.050327 3.321892 -0.010011
v -0.047407 3.321892 -0.019637
v -0.042665 3.321892 -0.028508
v -0.036284 3.321892 -0.036284
v -0.028508 3.321892 -0.042665
v -0.019637 3.321892 -0.047407
v -0.010011 3.321892 -0.050327
v 0.000000 3.321892 -0.051313
v 0.010011 3.321892 -0.050327
v 0.019637 3.321892 -0.047407
v 0.028508 3.321892 -0.042665
v 0.036284 3.321892 -0.036284
v 0.042665 3.321892 -0.028508
v 0.047407 3.321892 -0.019636
v 0.050327 3.321892 -0.010011
v 0.708073 3.360717 0.023053
v 0.708073 3.360717 -0.023052
v -0.262597 3.333438 -0.097940
v -0.235318 3.326219 -0.141692
v -0.203459 3.306159 -0.101041
v -0.262597 3.333438 0.097940
v -0.203459 3.306159 0.101041
v -0.235318 3.326219 0.141692
v 0.786621 3.306159 -0.009104
v 0.816831 3.317621 -0.031384
v 0.637987 3.326219 -0.141692
v 0.721017 3.317665 -0.127079
v 0.694684 3.306159 -0.101041
v 0.786621 3.306159 0.009104
v 0.816831 3.317621 0.031384
v 0.637987 3.326219 0.141692
v 0.694684 3.306159 0.101041
v 0.721017 3.317665 0.127079
v -0.262597 3.333438 -0.097940
v -0.235318 3.360717 -0.087124
v -0.235318 3.340658 -0.128384
v -0.262597 3.333438 0.097940
v -0.235318 3.340658 0.128384
v -0.235318 3.360717 0.087124
v 0.612063 3.340658 -0.128384
v 0.643822 3.360717 -0.087304
v 0.612063 3.340658 0.128384
v 0.643822 3.360717 0.087304
v -0.235318 3.306159 -0.132900
v -0.235318 3.306159 0.132900
v 0.707880 3.306159 0.132900
v 0.818480 3.306159 0.022300
v 0.818480 3.306159 -0.022300
v 0.707880 3.306159 -0.132900
v 0.042665 3.210291 0.028508
v 0.051313 3.180812 0.000000
v 0.036284 3.232046 0.036284
v 0.173592 3.306159 -0.101041
v 0.028508 3.258555 0.042665
v 0.173591 3.306159 0.101041
v 0.019637 3.288799 0.047407
v 0.047407 3.194129 -0.019636
v 0.050327 3.184171 0.010011
v 0.050327 3.184173 -0.010011
v 0.047407 3.194125 0.019637
vn 1.0000 -0.0000 -0.0000
vn 0.9808 -0.0000 0.1951
vn 0.9239 -0.0000 0.3827
vn 0.8315 -0.0000 0.5556
vn 0.7071 -0.0000 0.7071
vn 0.5556 -0.0000 0.8315
vn 0.3827 -0.0000 0.9239
vn 0.1951 -0.0000 0.9808
vn -0.0000 -0.0000 1.0000
vn -0.1951 -0.0000 0.9808
vn -0.3827 -0.0000 0.9239
vn -0.5556 -0.0000 0.8315
vn -0.7071 -0.0000 0.7071
vn -0.8315 -0.0000 0.5556
vn -0.9239 -0.0000 0.3827
vn -0.9808 -0.0000 0.1951
vn -1.0000 -0.0000 -0.0000
vn -0.9808 -0.0000 -0.1951
vn -0.9239 -0.0000 -0.3827
vn -0.8315 -0.0000 -0.5556
vn -0.7071 -0.0000 -0.7071
vn -0.5556 -0.0000 -0.8315
vn -0.3827 -0.0000 -0.9239
vn -0.1951 -0.0000 -0.9808
vn -0.0000 -0.0000 -1.0000
vn 0.1951 -0.0000 -0.9808
vn 0.3827 -0.0000 -0.9239
vn 0.5556 -0.0000 -0.8315
vn 0.7071 -0.0000 -0.7071
vn 0.8315 -0.0000 -0.5556
vn 0.9239 -0.0000 -0.3827
vn 0.9808 -0.0000 -0.1951
vn 0.9303 0.3166 -0.1851
vn 0.9486 0.3166 -0.0000
vn 0.8764 0.3166 -0.3630
vn 0.7887 0.3166 -0.5270
vn 0.6707 0.3166 -0.6707
vn 0.5270 0.3166 -0.7887
vn 0.3630 0.3166 -0.8764
vn 0.1851 0.3166 -0.9303
vn -0.0000 0.3166 -0.9486
vn -0.1851 0.3166 -0.9303
vn -0.3630 0.3166 -0.8764
vn -0.5270 0.3166 -0.7887
vn -0.6707 0.3166 -0.6707
vn -0.7887 0.3166 -0.5270
vn -0.8764 0.3166 -0.3630
vn -0.9303 0.3166 -0.1851
vn -0.9486 0.3166 -0.0000
vn -0.9303 0.3166 0.1851
vn -0.8764 0.3166 0.3630
vn -0.7887 0.3166 0.5270
vn -0.6707 0.3166 0.6707
vn -0.5270 0.3166 0.7887
vn -0.3630 0.3166 0.8764
vn -0.1851 0.3166 0.9303
vn -0.0000 0.3166 0.9486
vn 0.1851 0.3166 0.9303
vn 0.3630 0.3166 0.8764
vn 0.5270 0.3166 0.7887
vn 0.6707 0.3166 0.6707
vn 0.7887 0.3166 0.5270
vn 0.8764 0.3166 0.3630
vn 0.9303 0.3166 0.1851
vn -0.0000 1.0000 -0.0000
vn 0.1431 0.7975 -0.5861
vn -0.0000 0.6777 -0.7353
vn -0.0000 0.8022 -0.5970
vn 0.0462 0.8044 -0.5923
vn 0.2876 0.8751 0.3891
vn 0.3571 0.9256 0.1258
vn 0.2200 0.9681 0.1199
vn 0.1184 0.9514 0.2842
vn -0.0000 0.9744 -0.2247
vn -0.0000 0.9744 0.2247
vn 0.2200 0.9681 -0.1199
vn 0.1184 0.9514 -0.2842
vn -0.0000 0.6777 0.7353
vn 0.1431 0.7975 0.5861
vn 0.0462 0.8044 0.5923
vn -0.0000 0.8022 0.5970
vn 0.3571 0.9256 -0.1258
vn 0.2876 0.8751 -0.3891
vn -0.8442 -0.2152 -0.4909
vn -0.8442 -0.2152 0.4909
vn 0.0054 -0.3857 0.9226
vn -0.7005 0.6205 -0.3526
vn -0.6759 0.7260 -0.1264
vn -0.6757 0.5670 -0.4710
vn -0.6948 0.6463 0.3154
vn -0.6757 0.5670 0.4710
vn -0.6759 0.7260 0.1264
vn -0.7071 -0.7071 -0.0000
vn 0.6436 -0.4134 0.6441
vn 0.9898 0.1424 -0.0000
vn 0.6436 -0.4134 -0.6441
vn -0.7071 0.4792 -0.5199
vn -0.7071 0.4792 0.5200
vn -0.0000 -1.0000 -0.0000
vn 0.0054 -0.3857 -0.9226
vt 0.112957 0.000000
vt 0.105115 0.811459
vt 0.108250 0.000001
vt 0.101245 0.811430
vt 0.103544 0.000005
vt 0.097375 0.811404
vt 0.098839 0.000010
vt 0.093505 0.811380
vt 0.094134 0.000018
vt 0.089634 0.811359
vt 0.089430 0.000027
vt 0.085763 0.811341
vt 0.084727 0.000039
vt 0.081892 0.811326
vt 0.080024 0.000052
vt 0.078021 0.811314
vt 0.075321 0.000068
vt 0.074149 0.811304
vt 0.070618 0.000086
vt 0.070278 0.811297
vt 0.065916 0.000105
vt 0.066406 0.811293
vt 0.061213 0.000127
vt 0.062535 0.811291
vt 0.056510 0.000150
vt 0.058663 0.811293
vt 0.051806 0.000176
vt 0.054791 0.811297
vt 0.047102 0.000203
vt 0.050920 0.811304
vt 0.042397 0.000233
vt 0.047048 0.811314
vt 0.037692 0.000264
vt 0.043176 0.811327
vt 0.032986 0.000297
vt 0.039305 0.811344
vt 0.028278 0.000333
vt 0.035434 0.811366
vt 0.023569 0.000370
vt 0.031564 0.811395
vt 0.018859 0.000409
vt 0.027697 0.811436
vt 0.014148 0.000450
vt 0.023836 0.811498
vt 0.009434 0.000492
vt 0.019989 0.811599
vt 0.004718 0.000537
vt 0.016175 0.811777
vt 0.150633 0.000061
vt 0.000000 0.000584
vt 0.012448 0.812076
vt 0.135576 0.812130
vt 0.145954 0.000046
vt 0.131958 0.811878
vt 0.141233 0.000033
vt 0.128211 0.811747
vt 0.136515 0.000022
vt 0.124404 0.811667
vt 0.131800 0.000014
vt 0.120566 0.811610
vt 0.127087 0.000007
vt 0.116712 0.811565
vt 0.122375 0.000003
vt 0.112849 0.811526
vt 0.117666 0.000000
vt 0.108983 0.811491
vt 0.111851 0.279149
vt 0.107324 0.278953
vt 0.102821 0.278791
vt 0.098337 0.278659
vt 0.093869 0.278556
vt 0.089413 0.278479
vt 0.084967 0.278427
vt 0.080528 0.278400
vt 0.076092 0.278396
vt 0.071658 0.278415
vt 0.067223 0.278459
vt 0.062784 0.278527
vt 0.058339 0.278620
vt 0.053884 0.278741
vt 0.049417 0.278890
vt 0.044933 0.279072
vt 0.040429 0.279288
vt 0.035901 0.279542
vt 0.031342 0.279840
vt 0.026747 0.280187
vt 0.022109 0.280590
vt 0.017418 0.281058
vt 0.012666 0.281602
vt 0.007840 0.282235
vt 0.149718 0.282654
vt 0.002923 0.282973
vt 0.144723 0.281933
vt 0.139843 0.281324
vt 0.135041 0.280804
vt 0.130306 0.280361
vt 0.125628 0.279981
vt 0.120997 0.279658
vt 0.116407 0.279382
vt 0.109599 0.309131
vt 0.105460 0.308957
vt 0.101306 0.308808
vt 0.097141 0.308683
vt 0.092967 0.308580
vt 0.088786 0.308498
vt 0.084601 0.308435
vt 0.080412 0.308391
vt 0.076222 0.308366
vt 0.072034 0.308359
vt 0.067848 0.308370
vt 0.063666 0.308399
vt 0.059491 0.308447
vt 0.055325 0.308516
vt 0.051169 0.308605
vt 0.047026 0.308717
vt 0.042898 0.308854
vt 0.038787 0.309018
vt 0.034698 0.309212
vt 0.030632 0.309440
vt 0.026593 0.309705
vt 0.022586 0.310012
vt 0.018614 0.310367
vt 0.014682 0.310777
vt 0.141723 0.311839
vt 0.010811 0.311244
vt 0.137892 0.311332
vt 0.133953 0.310885
vt 0.129972 0.310490
vt 0.125953 0.310142
vt 0.121903 0.309836
vt 0.117824 0.309568
vt 0.113722 0.309334
vt 0.101334 0.806857
vt 0.105208 0.806887
vt 0.097460 0.806830
vt 0.093586 0.806806
vt 0.089712 0.806785
vt 0.085838 0.806767
vt 0.081964 0.806751
vt 0.078089 0.806739
vt 0.074215 0.806729
vt 0.070340 0.806722
vt 0.066465 0.806717
vt 0.062591 0.806716
vt 0.058716 0.806717
vt 0.054841 0.806721
vt 0.050965 0.806728
vt 0.047090 0.806738
vt 0.043214 0.806750
vt 0.039337 0.806766
vt 0.035458 0.806786
vt 0.031575 0.806812
vt 0.027685 0.806846
vt 0.023778 0.806895
vt 0.019838 0.806975
vt 0.015831 0.807119
vt 0.011656 0.807420
vt 0.136396 0.807847
vt 0.132386 0.807482
vt 0.128468 0.807272
vt 0.124580 0.807148
vt 0.120702 0.807066
vt 0.116827 0.807007
vt 0.112954 0.806960
vt 0.109081 0.806921
vt 0.100081 0.999745
vt 0.103802 0.999763
vt 0.096359 0.999729
vt 0.092638 0.999715
vt 0.088916 0.999704
vt 0.085195 0.999695
vt 0.081473 0.999689
vt 0.077751 0.999685
vt 0.074029 0.999684
vt 0.070307 0.999685
vt 0.066584 0.999689
vt 0.062862 0.999695
vt 0.059140 0.999703
vt 0.055418 0.999714
vt 0.051696 0.999728
vt 0.047974 0.999744
vt 0.044252 0.999762
vt 0.040530 0.999783
vt 0.036808 0.999806
vt 0.033086 0.999832
vt 0.029365 0.999861
vt 0.025644 0.999892
vt 0.021923 0.999925
vt 0.018202 0.999961
vt 0.014482 1.000000
vt 0.133675 1.000000
vt 0.129841 0.999961
vt 0.126123 0.999925
vt 0.122403 0.999892
vt 0.118683 0.999861
vt 0.114963 0.999833
vt 0.111243 0.999807
vt 0.107522 0.999784
vt 0.691125 0.416814
vt 0.281126 0.052191
vt 0.670754 0.416814
vt 0.301694 0.052191
vt 0.524449 1.000000
vt 0.169918 0.486629
vt 0.432188 0.453994
vt 0.179778 0.459367
vt 0.515429 0.978840
vt 0.539005 0.451518
vt 0.169588 0.550853
vt 0.628290 0.451518
vt 0.150633 0.453994
vt 0.176323 0.566538
vt 0.515429 0.000000
vt 0.182626 0.617176
vt 0.579625 0.014076
vt 0.305411 0.000000
vt 0.432188 0.503287
vt 0.360865 0.076359
vt 0.442172 0.600011
vt 0.350744 0.039935
vt 0.439549 0.562664
vt 0.539005 0.054696
vt 0.587670 0.014076
vt 0.277409 0.000000
vt 0.432188 0.475555
vt 0.442172 0.378831
vt 0.221955 0.076359
vt 0.628290 0.054696
vt 0.439549 0.416179
vt 0.232076 0.039935
vt 0.169866 0.483801
vt 0.642446 0.000000
vt 0.150633 0.481740
vt 0.403697 0.459367
vt 0.423651 0.455605
vt 0.169661 0.463516
vt 0.169522 0.550848
vt 0.159170 0.455605
vt 0.160787 0.604023
vt 0.719433 0.000000
vt 0.151771 0.548057
vt 0.179124 0.459367
vt 0.354521 0.089320
vt 0.642366 0.388426
vt 0.332132 0.078966
vt 0.228299 0.089320
vt 0.719513 0.388426
vt 0.250688 0.078966
vt 0.182626 0.475232
vt 0.524929 0.977003
vt 0.524929 0.465594
vt 0.524929 0.001837
vt 0.182178 0.562381
vt 0.642366 0.465594
vt 0.445810 0.410987
vt 0.642366 0.048866
vt 0.437305 0.479568
vt 0.593501 0.000000
vt 0.437305 0.499274
vt 0.573795 0.000000
vt 0.445810 0.567855
vt 0.524929 0.048866
vt 0.092834 0.957083
vt 0.104177 0.945879
vt 0.089047 0.965381
vt 0.539005 0.355198
vt 0.085268 0.975498
vt 0.628290 0.355199
vt 0.081501 0.987046
vt 0.111659 0.951015
vt 0.100406 0.947140
vt 0.107931 0.947186
vt 0.096623 0.950924
s 1
usemtl M_StreetLamp
f 97/100/1 130/134/1 129/133/2 98/101/2
f 98/101/2 129/133/2 131/135/3 99/102/3
f 99/102/3 131/135/3 132/136/4 100/103/4
f 100/103/4 132/136/4 133/137/5 101/104/5
f 101/104/5 133/137/5 134/138/6 102/105/6
f 102/105/6 134/138/6 135/139/7 103/106/7
f 103/106/7 135/139/7 136/140/8 104/107/8
f 104/107/8 136/140/8 137/141/9 105/108/9
f 105/108/9 137/141/9 138/142/10 106/109/10
f 106/109/10 138/142/10 139/143/11 107/110/11
f 107/110/11 139/143/11 140/144/12 108/111/12
f 108/111/12 140/144/12 141/145/13 109/112/13
f 109/112/13 141/145/13 142/146/14 110/113/14
f 110/113/14 142/146/14 143/147/15 111/114/15
f 111/114/15 143/147/15 144/148/16 112/115/16
f 112/115/16 144/148/16 145/149/17 113/116/17
f 113/116/17 145/149/17 146/150/18 114/117/18
f 114/117/18 146/150/18 147/151/19 115/118/19
f 115/118/19 147/151/19 148/152/20 116/119/20
f 116/119/20 148/152/20 149/153/21 117/120/21
f 117/120/21 149/153/21 150/154/22 118/121/22
f 118/121/22 150/154/22 151/155/23 119/122/23
f 119/122/23 151/155/23 152/156/24 120/123/24
f 120/123/24 152/156/24 153/157/25 121/125/25
f 121/124/25 153/158/25 154/159/26 122/126/26
f 122/126/26 154/159/26 155/160/27 123/127/27
f 123/127/27 155/160/27 156/161/28 124/128/28
f 124/128/28 156/161/28 157/162/29 125/129/29
f 125/129/29 157/162/29 158/163/30 126/130/30
f 126/130/30 158/163/30 159/164/31 127/131/31
f 20/20/10 18/18/9 169/174/9 170/175/10
f 127/131/31 159/164/31 160/165/32 128/132/32
f 128/132/32 160/165/32 130/134/1 97/100/1
f 63/65/32 96/99/32 65/67/1 1/1/1
f 61/63/31 95/98/31 96/99/32 63/65/32
f 59/61/30 94/97/30 95/98/31 61/63/31
f 57/59/29 93/96/29 94/97/30 59/61/30
f 55/57/28 92/95/28 93/96/29 57/59/29
f 53/55/27 91/94/27 92/95/28 55/57/28
f 51/53/26 90/93/26 91/94/27 53/55/27
f 49/49/25 89/91/25 90/93/26 51/53/26
f 47/47/24 88/90/24 89/92/25 49/50/25
f 45/45/23 87/89/23 88/90/24 47/47/24
f 43/43/22 86/88/22 87/89/23 45/45/23
f 41/41/21 85/87/21 86/88/22 43/43/22
f 39/39/20 84/86/20 85/87/21 41/41/21
f 37/37/19 83/85/19 84/86/20 39/39/20
f 35/35/18 82/84/18 83/85/19 37/37/19
f 33/33/17 81/83/17 82/84/18 35/35/18
f 31/31/16 80/82/16 81/83/17 33/33/17
f 29/29/15 79/81/15 80/82/16 31/31/16
f 27/27/14 78/80/14 79/81/15 29/29/15
f 25/25/13 77/79/13 78/80/14 27/27/14
f 23/23/12 76/78/12 77/79/13 25/25/13
f 21/21/11 75/77/11 76/78/12 23/23/12
f 19/19/10 74/76/10 75/77/11 21/21/11
f 17/17/9 73/75/9 74/76/10 19/19/10
f 15/15/8 72/74/8 73/75/9 17/17/9
f 13/13/7 71/73/7 72/74/8 15/15/8
f 11/11/6 70/72/6 71/73/7 13/13/7
f 9/9/5 69/71/5 70/72/6 11/11/6
f 7/7/4 68/70/4 69/71/5 9/9/5
f 5/5/3 67/69/3 68/70/4 7/7/4
f 3/3/2 66/68/2 67/69/3 5/5/3
f 1/1/1 65/67/1 66/68/2 3/3/2
f 96/99/33 128/132/33 97/100/34 65/67/34
f 95/98/35 127/131/35 128/132/33 96/99/33
f 94/97/36 126/130/36 127/131/35 95/98/35
f 93/96/37 125/129/37 126/130/36 94/97/36
f 92/95/38 124/128/38 125/129/37 93/96/37
f 91/94/39 123/127/39 124/128/38 92/95/38
f 90/93/40 122/126/40 123/127/39 91/94/39
f 89/91/41 121/124/41 122/126/40 90/93/40
f 88/90/42 120/123/42 121/125/41 89/92/41
f 87/89/43 119/122/43 120/123/42 88/90/42
f 86/88/44 118/121/44 119/122/43 87/89/43
f 85/87/45 117/120/45 118/121/44 86/88/44
f 84/86/46 116/119/46 117/120/45 85/87/45
f 83/85/47 115/118/47 116/119/46 84/86/46
f 82/84/48 114/117/48 115/118/47 83/85/47
f 81/83/49 113/116/49 114/117/48 82/84/48
f 80/82/50 112/115/50 113/116/49 81/83/49
f 79/81/51 111/114/51 112/115/50 80/82/50
f 78/80/52 110/113/52 111/114/51 79/81/51
f 77/79/53 109/112/53 110/113/52 78/80/52
f 76/78/54 108/111/54 109/112/53 77/79/53
f 75/77/55 107/110/55 108/111/54 76/78/54
f 74/76/56 106/109/56 107/110/55 75/77/55
f 73/75/57 105/108/57 106/109/56 74/76/56
f 72/74/58 104/107/58 105/108/57 73/75/57
f 71/73/59 103/106/59 104/107/58 72/74/58
f 70/72/60 102/105/60 103/106/59 71/73/59
f 69/71/61 101/104/61 102/105/60 70/72/60
f 68/70/62 100/103/62 101/104/61 69/71/61
f 67/69/63 99/102/63 100/103/62 68/70/62
f 66/68/64 98/101/64 99/102/63 67/69/63
f 65/67/34 97/100/34 98/101/64 66/68/64
f 2/2/65 4/4/65 129/133/65 130/134/65
f 4/4/65 6/6/65 131/135/65 129/133/65
f 6/6/65 8/8/65 132/136/65 131/135/65
f 8/8/65 10/10/65 133/137/65 132/136/65
f 10/10/65 12/12/65 134/138/65 133/137/65
f 12/12/65 14/14/65 135/139/65 134/138/65
f 14/14/65 16/16/65 136/140/65 135/139/65
f 16/16/65 18/18/65 137/141/65 136/140/65
f 18/18/65 20/20/65 138/142/65 137/141/65
f 20/20/65 22/22/65 139/143/65 138/142/65
f 22/22/65 24/24/65 140/144/65 139/143/65
f 24/24/65 26/26/65 141/145/65 140/144/65
f 26/26/65 28/28/65 142/146/65 141/145/65
f 28/28/65 30/30/65 143/147/65 142/146/65
f 30/30/65 32/32/65 144/148/65 143/147/65
f 32/32/65 34/34/65 145/149/65 144/148/65
f 34/34/65 36/36/65 146/150/65 145/149/65
f 36/36/65 38/38/65 147/151/65 146/150/65
f 38/38/65 40/40/65 148/152/65 147/151/65
f 40/40/65 42/42/65 149/153/65 148/152/65
f 42/42/65 44/44/65 150/154/65 149/153/65
f 44/44/65 46/46/65 151/155/65 150/154/65
f 46/46/65 48/48/65 152/156/65 151/155/65
f 48/48/65 50/51/65 153/157/65 152/156/65
f 50/52/65 52/54/65 154/159/65 153/158/65
f 52/54/65 54/56/65 155/160/65 154/159/65
f 54/56/65 56/58/65 156/161/65 155/160/65
f 56/58/65 58/60/65 157/162/65 156/161/65
f 58/60/65 60/62/65 158/163/65 157/162/65
f 60/62/65 62/64/65 159/164/65 158/163/65
f 62/64/65 64/66/65 160/165/65 159/164/65
f 64/66/65 2/2/65 130/134/65 160/165/65
f 48/48/24 46/46/23 183/188/23 184/189/24
f 22/22/11 20/20/10 170/175/10 171/176/11
f 50/51/25 48/48/24 184/189/24 185/190/25
f 24/24/12 22/22/11 171/176/11 172/177/12
f 52/54/26 50/52/25 185/191/25 186/192/26
f 26/26/13 24/24/12 172/177/12 173/178/13
f 54/56/27 52/54/26 186/192/26 187/193/27
f 28/28/14 26/26/13 173/178/13 174/179/14
f 56/58/28 54/56/27 187/193/27 188/194/28
f 30/30/15 28/28/14 174/179/14 175/180/15
f 4/4/2 2/2/1 228/264/1 235/271/2
f 58/60/29 56/58/28 188/194/28 189/195/29
f 32/32/16 30/30/15 175/180/15 176/181/16
f 6/6/3 4/4/2 235/271/2 237/273/3
f 60/62/30 58/60/29 189/195/29 190/196/30
f 34/34/17 32/32/16 176/181/16 177/182/17
f 8/8/4 6/6/3 237/273/3 227/263/4
f 62/64/31 60/62/30 190/196/30 191/197/31 234/270/31
f 36/36/18 34/34/17 177/182/17 178/183/18
f 10/10/5 8/8/4 227/263/4 229/265/5
f 64/66/32 62/64/31 234/270/31 236/272/32
f 38/38/19 36/36/18 178/183/18 179/184/19
f 12/12/6 10/10/5 229/265/5 231/267/6
f 2/2/1 64/66/32 236/272/32 228/264/1
f 40/40/20 38/38/19 179/184/19 180/185/20
f 14/14/7 12/12/6 231/267/6 233/269/7
f 42/42/21 40/40/20 180/185/20 181/186/21
f 16/16/8 14/14/7 233/269/7 167/172/7 168/173/8
f 44/44/22 42/42/21 181/186/21 182/187/22
f 18/18/9 16/16/8 168/173/8 169/174/9
f 46/46/23 44/44/22 182/187/22 183/188/23
f 203/218/66 196/205/67 213/235/68 217/243/69
f 210/230/70 207/224/71 193/200/72 220/248/73
f 212/232/74 216/240/75 220/247/73 193/199/72 194/201/76 218/244/77
f 200/211/78 208/227/79 219/246/80 215/238/81
f 202/216/82 204/220/83 218/245/77 194/202/76
f 207/224/71 202/216/82 194/202/76 193/200/72
f 195/203/84 196/207/84 221/250/84
f 198/209/85 222/253/85 200/212/85
f 222/252/86 223/255/86 210/229/86 208/226/86 200/213/86
f 211/231/87 212/233/88 213/236/89
f 214/237/90 215/239/91 216/241/92
f 221/249/93 222/253/93 198/209/93 195/204/93
f 223/255/94 224/257/94 207/225/94 210/229/94
f 224/257/95 225/259/95 202/217/95 207/225/95
f 225/259/96 226/261/96 204/221/96 202/217/96
f 211/231/87 214/237/90 216/241/92 212/233/88
f 217/243/69 213/235/68 212/234/74 218/245/77
f 215/238/81 219/246/80 220/248/73 216/242/75
f 203/218/66 217/243/69 218/245/77 204/220/83
f 219/246/80 208/227/79 210/230/70 220/248/73
f 195/204/97 211/231/87 213/236/89 196/206/97
f 214/237/90 198/209/98 200/214/98 215/239/91
f 195/204/99 198/209/99 214/237/99 211/231/99
f 226/261/100 221/250/100 196/207/100 203/219/100 204/221/100
f 197/208/99 230/266/99 232/268/99 199/210/99
f 197/208/99 199/210/99 222/254/99 221/251/99
f 209/228/99 206/223/99 224/258/99 223/256/99
f 206/223/99 201/215/99 225/260/99 224/258/99
f 201/215/99 205/222/99 226/262/99 225/260/99
f 199/210/99 232/268/99 209/228/99 223/256/99 222/254/99
f 205/222/99 230/266/99 197/208/99 221/251/99 226/262/99
f 231/267/6 229/265/5 165/170/5 166/171/6
f 229/265/5 227/263/4 164/169/4 165/170/5
f 227/263/4 237/273/3 163/168/3 164/169/4
f 228/264/1 236/272/32 192/198/32 162/167/1
f 237/273/3 235/271/2 161/166/2 163/168/3
f 236/272/32 234/270/31 191/197/31 192/198/32
f 235/271/2 228/264/1 162/167/1 161/166/2
f 232/268/99 230/266/99 205/222/99 201/215/99 206/223/99 209/228/99
f 233/269/7 231/267/6 166/171/6 167/172/7
